<svg width="32" height="32" viewBox="0 0 32 32" fill="none" xmlns="http://www.w3.org/2000/svg">
  <rect width="32" height="32" rx="4" fill="#3B82F6"/>
  <path d="M16 8C16 7.44772 15.5523 7 15 7H13C12.4477 7 12 7.44772 12 8V9H8C7.44772 9 7 9.44772 7 10V12C7 12.5523 7.44772 13 8 13H9V19H8C7.44772 19 7 19.4477 7 20V22C7 22.5523 7.44772 23 8 23H9V24C9 24.5523 9.44772 25 10 25H12C12.5523 25 13 24.5523 13 24V23H19V24C19 24.5523 19.4477 25 20 25H22C22.5523 25 23 24.5523 23 24V23H24C24.5523 23 25 22.5523 25 22V20C25 19.4477 24.5523 19 24 19H23V13H24C24.5523 13 25 12.5523 25 12V10C25 9.44772 24.5523 9 24 9H23V8C23 7.44772 22.5523 7 22 7H20C19.4477 7 19 7.44772 19 8V9H13V8H16Z" fill="white"/>
  <rect x="13" y="13" width="6" height="6" rx="0.5" fill="white"/>
</svg>