<svg width="512" height="512" viewBox="0 0 512 512" fill="none" xmlns="http://www.w3.org/2000/svg">
  <rect width="512" height="512" rx="64" fill="#3B82F6"/>
  <path d="M256 128C256 119.163 248.837 112 240 112H208C199.163 112 192 119.163 192 128V144H128C119.163 144 112 151.163 112 160V192C112 200.837 119.163 208 128 208H144V304H128C119.163 304 112 311.163 112 320V352C112 360.837 119.163 368 128 368H144V384C144 392.837 151.163 400 160 400H192C200.837 400 208 392.837 208 384V368H304V384C304 392.837 311.163 400 320 400H352C360.837 400 368 392.837 368 384V368H384C392.837 368 400 360.837 400 352V320C400 311.163 392.837 304 384 304H368V208H384C392.837 208 400 200.837 400 192V160C400 151.163 392.837 144 384 144H368V128C368 119.163 360.837 112 352 112H320C311.163 112 304 119.163 304 128V144H208V128H256Z" fill="white"/>
  <rect x="208" y="208" width="96" height="96" rx="8" fill="white"/>
</svg>